<?xml version="1.0" encoding="UTF-8"?>
<svg id="Layer_1" data-name="Layer 1" xmlns="http://www.w3.org/2000/svg" viewBox="0 0 100 91">
  <defs>
    <style>
      .cls-1 {
        fill: #004f87;
      }

      .cls-2 {
        fill: #fff;
      }
    </style>
  </defs>
  <path class="cls-2" d="m45.76,62.38c1.79.91,3.64,2.04,3.64,4.35,0,3-2.59,4.2-5.18,4.24-1.98.03-4.35-.78-6.18-1.54l-.49,4.55c2.16.7,4.14,1.22,6.17,1.28,5.73.18,10.7-2.46,10.7-8.78,0-5.79-4.3-7.51-8.5-9.61-1.55-.77-3.63-1.83-3.63-3.86,0-2.6,2.31-3.39,4.57-3.39,2.03,0,3.12.34,5.59,1.31l.68-4.48c-2.27-.8-4.54-1.13-6.44-1.13-5.22,0-9.43,2.76-9.43,8.05,0,5.6,4.55,6.99,8.5,9Z"/>
  <polygon class="cls-2" points="70.65 55.01 72.75 60.15 77.59 60.15 70.65 44.7 63.71 60.15 68.54 60.15 70.65 55.01"/>
  <polygon class="cls-2" points="74.16 68.88 70.64 66.17 64.53 69.37 67.07 63.56 63.63 60.33 57.17 74.76 62.12 74.76 74.16 68.88"/>
  <path class="cls-2" d="m21.79,75.27c4.45,0,7.24-.74,9.06-1.36v-15.06h-10.31v4.22h5.44v7.49c-1.03.27-2.46.4-4.15.4-5.66,0-10.23-4.09-10.26-10.67-.03-6.11,4.17-10.67,10.46-10.67,3.58,0,5.65.64,8.08,2.22l.4-4.99c-2.64-.91-4.5-1.53-8.68-1.53-8.8,0-15.29,5.93-15.29,14.85s6.12,15.09,15.25,15.09Z"/>
  <polygon class="cls-2" points="79.05 74.76 84.12 74.76 77.67 60.33 74.22 63.56 79.05 74.76"/>
  <path class="cls-1" d="m0,0v90.13h90V0H0Zm21.83,70.97c1.69,0,3.12-.12,4.15-.4v-7.49h-5.44v-4.22h10.31v15.06c-1.82.62-4.61,1.36-9.06,1.36-9.14,0-15.25-5.9-15.25-15.09s6.49-14.85,15.29-14.85c4.18,0,6.04.62,8.68,1.53l-.4,4.99c-2.43-1.59-4.5-2.22-8.08-2.22-6.29,0-10.49,4.55-10.46,10.67.03,6.58,4.6,10.67,10.26,10.67Zm24.1-14.09c4.2,2.1,8.5,3.82,8.5,9.61,0,6.32-4.97,8.97-10.7,8.78-2.03-.06-4.02-.58-6.17-1.28l.49-4.55c1.83.75,4.19,1.57,6.18,1.54,2.59-.04,5.18-1.24,5.18-4.24,0-2.31-1.85-3.44-3.64-4.35-3.95-2-8.5-3.4-8.5-9,0-5.29,4.21-8.05,9.43-8.05,1.9,0,4.16.33,6.44,1.13l-.68,4.48c-2.48-.97-3.56-1.31-5.59-1.31-2.25,0-4.57.79-4.57,3.39,0,2.03,2.08,3.08,3.63,3.86Zm21.15,6.68l-2.54,5.81,6.11-3.2,3.52,2.71-12.03,5.89h-4.96l6.46-14.43,3.44,3.23Zm-3.36-3.41l6.94-15.45,6.94,15.45h-4.84l-2.1-5.14-2.11,5.14h-4.83Zm15.34,14.61l-4.83-11.2,3.44-3.23,6.46,14.43h-5.07Z"/>
  <path class="cls-1" d="m97,3.68c.6-.04,1.01-.45,1.01-1.02,0-.33-.24-.68-.55-.81-.25-.1-.42-.12-.96-.12h-1.21v3.53h.57v-1.5h.34c.44,0,.6.15,1.05.94l.31.55h.69l-.43-.69c-.36-.57-.55-.78-.82-.89Zm-.45-.41h-.69v-1.06h.65c.66,0,.9.13.9.53s-.27.53-.85.53Z"/>
  <path class="cls-1" d="m96.72.17c-1.82,0-3.29,1.47-3.29,3.28s1.47,3.29,3.29,3.29,3.28-1.47,3.28-3.29-1.47-3.28-3.28-3.28Zm0,6.02c-1.51,0-2.74-1.23-2.74-2.74s1.23-2.73,2.74-2.73,2.73,1.23,2.73,2.73-1.23,2.74-2.73,2.74Z"/>
</svg>