<?xml version="1.0" encoding="UTF-8"?>
<svg id="a" data-name="Layer 1" xmlns="http://www.w3.org/2000/svg" viewBox="0 0 500 500">
  <defs>
    <style>
      .b {
        fill: #63a3d9;
      }

      .c {
        fill: #fff;
        opacity: 0;
      }
    </style>
  </defs>
  <rect class="c" width="500" height="500"/>
  <path class="b" d="m278.24,50.02c.33.48.7.94,1.11,1.35.41.41.87.78,1.35,1.11.49.32,1,.6,1.54.82s1.1.39,1.67.51c.57.11,1.16.17,1.74.17s1.17-.06,1.74-.17c.57-.12,1.13-.29,1.67-.51s1.05-.5,1.54-.82c.48-.33.94-.7,1.35-1.11.41-.41.78-.87,1.11-1.35.32-.49.6-1,.82-1.54.22-.54.39-1.1.51-1.67.11-.57.17-1.16.17-1.74,0-2.35-.95-4.64-2.61-6.3-.41-.41-.87-.78-1.35-1.11-.49-.32-1-.6-1.54-.82s-1.1-.39-1.67-.51c-1.15-.23-2.33-.23-3.48,0-.57.12-1.13.29-1.67.51s-1.05.5-1.54.82c-.48.33-.94.7-1.35,1.11-1.66,1.66-2.61,3.95-2.61,6.3,0,.58.06,1.17.17,1.74.12.57.29,1.13.51,1.67.23.54.5,1.05.82,1.54Z"/>
  <path class="b" d="m267.83,356.92c-4.92,0-8.91,3.99-8.91,8.91s3.99,8.91,8.91,8.91h35.64c4.92,0,8.91-3.99,8.91-8.91s-3.99-8.91-8.91-8.91h-35.64Z"/>
  <path class="b" d="m471.67,46.16c-6.45-6.45-15.02-10-24.13-10s-17.69,3.55-24.13,10l-13.01,13.01v-14.1c0-24.56-19.99-44.55-44.55-44.55h-160.38c-24.56,0-44.55,19.98-44.55,44.55v22.79c0,4.92,3.99,8.91,8.91,8.91s8.91-3.99,8.91-8.91v-22.79c0-14.74,11.99-26.73,26.73-26.73h160.38c14.74,0,26.73,11.99,26.73,26.73v35.61h0v85.39l-16.73,16.73c-6.45,6.45-10.01,15.03-10.01,24.15s3.55,17.69,10.01,24.15c4.16,4.16,9.13,7.02,14.41,8.58l-5.5,5.5c-13.31,13.31-13.31,34.98,0,48.29,3.28,3.28,7.07,5.75,11.11,7.41l-2.21,2.21c-12.94,12.94-13.3,33.76-1.09,47.15v33.43c0,14.74-11.99,26.73-26.73,26.73h-160.38c-14.74,0-26.73-11.99-26.73-26.73v-105.5c14.4-43.47,22.06-80.24,22.76-109.27.87-36.01-9.04-60.24-29.46-72.04-7.57-4.38-16.79-4.53-24.67-.42-8.41,4.4-13.91,12.68-14.7,22.15-4.55,54.52-24.09,91.55-39.68,113.01-13.85,19.07-21.17,42.15-21.17,66.73v46.01c0,2.62-.49,5.16-1.37,7.53l-1.24-1.24c-3.48-3.48-9.12-3.48-12.6,0l-35.64,35.64c-3.48,3.48-3.48,9.12,0,12.6,3.48,3.48,9.12,3.48,12.6,0l29.34-29.34,2.6,2.6s0,0,0,0,0,0,0,0l124.74,124.74c1.67,1.67,3.94,2.61,6.3,2.61s4.63-.94,6.3-2.61l3.55-3.55c7.07-7.07,16.57-11.51,27.45-12.84,19.5-2.37,38.29-8.32,55.83-17.7,4.34-2.32,5.98-7.72,3.66-12.06-2.32-4.34-7.72-5.98-12.06-3.66-15.59,8.33-32.27,13.62-49.58,15.72-13.5,1.64-25.54,6.9-35.06,15.26l-112.95-112.95c3.86-6.17,5.94-13.32,5.94-20.79v-46.01c0-20.8,6.14-40.25,17.77-56.26,16.93-23.3,38.13-63.37,43.02-122,.28-3.3,2.27-6.31,5.2-7.84,1.45-.76,4.36-1.76,7.5.05,28.19,16.29,27.57,73.7-1.74,161.65,0,.02,0,.03-.01.05-.06.2-.12.4-.17.6-.02.09-.05.19-.07.28-.03.16-.06.31-.08.47-.02.15-.05.29-.07.44-.01.11-.01.22-.02.32-.01.2-.03.39-.03.59,0,.02,0,.04,0,.06v106.92c0,24.56,19.99,44.55,44.55,44.55h160.38c24.56,0,44.55-19.99,44.55-44.55v-23.11c2.44.54,4.93.82,7.42.82,8.74,0,17.49-3.33,24.15-9.98l11.9-11.9c6.45-6.45,10-15.03,10-24.15s-3.55-17.69-10-24.15c-3.28-3.28-7.07-5.75-11.12-7.41l11.12-11.12c6.45-6.45,10.01-15.03,10.01-24.15s-3.55-17.69-10-24.15c-4.16-4.16-9.13-7.02-14.41-8.58l14.41-14.41c6.45-6.45,10.01-15.03,10.01-24.15s-3.55-17.69-10.01-24.15c-8.59-8.59-20.66-11.63-31.72-9.13l49.54-49.52c13.31-13.31,13.31-34.96,0-48.27Zm-30.42,280.71l-11.9,11.9c-6.37,6.37-16.72,6.37-23.09,0-6.37-6.37-6.37-16.72,0-23.09l11.9-11.9c3.18-3.18,7.36-4.77,11.54-4.77s8.36,1.59,11.55,4.77c3.09,3.08,4.79,7.18,4.79,11.54s-1.7,8.46-4.79,11.54Zm4.79-78.36c0,4.36-1.7,8.46-4.79,11.54l-20.81,20.81c-6.37,6.36-16.72,6.37-23.09,0-6.37-6.37-6.37-16.72,0-23.09l20.81-20.81c3.18-3.18,7.36-4.77,11.54-4.77s8.36,1.59,11.55,4.77c3.09,3.09,4.79,7.19,4.79,11.54Zm-16.33-87.6c4.18,0,8.36,1.59,11.54,4.77,3.09,3.09,4.79,7.19,4.79,11.54s-1.7,8.46-4.79,11.54l-29.72,29.72c-6.37,6.36-16.72,6.37-23.09,0-3.09-3.09-4.79-7.19-4.79-11.54s1.7-8.46,4.79-11.54l18.79-18.79c.38-.32.74-.68,1.06-1.06l9.88-9.88c3.18-3.18,7.36-4.77,11.55-4.77Zm29.37-79.08l-48.68,48.66v-46.12l25.61-25.61c3.08-3.08,7.18-4.78,11.53-4.78s8.45,1.7,11.53,4.78c6.36,6.36,6.36,16.71,0,23.07Z"/>
  <path class="b" d="m232.19,160.9v19.35c-10.37,3.68-17.82,13.58-17.82,25.2v53.46c0,14.74,11.99,26.73,26.73,26.73h89.1c14.74,0,26.73-11.99,26.73-26.73v-53.46c0-11.62-7.45-21.52-17.82-25.2v-19.35c0-29.48-23.98-53.46-53.46-53.46s-53.46,23.98-53.46,53.46Zm106.92,98.01c0,4.91-4,8.91-8.91,8.91h-89.1c-4.91,0-8.91-4-8.91-8.91v-53.46c0-4.91,4-8.91,8.91-8.91h89.1c4.91,0,8.91,4,8.91,8.91v53.46Zm-53.46-133.65c19.65,0,35.64,15.99,35.64,35.64v17.82h-71.28v-17.82c0-19.65,15.99-35.64,35.64-35.64Z"/>
  <path class="b" d="m285.65,214.36c-4.92,0-8.91,3.99-8.91,8.91v17.82c0,4.92,3.99,8.91,8.91,8.91s8.91-3.99,8.91-8.91v-17.82c0-4.92-3.99-8.91-8.91-8.91Z"/>
</svg>