<?xml version="1.0" encoding="UTF-8"?>
<svg id="a" data-name="Layer 1" xmlns="http://www.w3.org/2000/svg" viewBox="0 0 500 500">
  <defs>
    <style>
      .b {
        fill: #63a3d9;
      }

      .c {
        fill: #fff;
        opacity: 0;
      }
    </style>
  </defs>
  <rect class="c" width="500" height="500"/>
  <path class="b" d="m250.01,481.67c-61.88,0-120.05-24.1-163.81-67.86S18.34,311.88,18.34,250s24.1-120.05,67.85-163.81C129.95,42.44,188.12,18.34,250,18.34s120.05,24.1,163.81,67.85c43.66,43.66,67.75,101.67,67.85,163.4,0,.14.01.28.01.42,0,61.88-24.1,120.05-67.85,163.81-43.75,43.76-101.93,67.85-163.81,67.85Zm0-445.51c-117.91,0-213.84,95.93-213.84,213.84s95.93,213.85,213.85,213.85,213.63-95.71,213.84-213.44c0-.14,0-.27,0-.41,0-117.91-95.93-213.84-213.84-213.84Zm0,371.25c-4.92,0-8.91-3.99-8.91-8.91v-28.57c-18.4-1.51-35.52-7.67-48.93-17.74l-21.75-16.3c-3.94-2.95-4.74-8.54-1.79-12.47s8.54-4.74,12.47-1.79l21.76,16.31c10.73,8.06,24.24,12.79,38.24,14.19v-93.62c-17.37-1.58-33.52-7.78-46.19-17.84-15.41-12.25-23.9-28.72-23.9-46.36,0-17.64,8.49-34.1,23.89-46.34,12.66-10.07,28.81-16.27,46.19-17.85v-28.61c0-4.92,3.99-8.91,8.91-8.91s8.91,3.99,8.91,8.91v28.61c17.39,1.58,33.55,7.78,46.22,17.85l10.27,8.17c3.85,3.06,4.49,8.67,1.43,12.52s-8.67,4.49-12.52,1.43l-10.27-8.17c-9.87-7.85-22.27-12.5-35.13-13.97v93.51c18.43,1.5,35.56,7.67,48.95,17.74,16.32,12.23,25.31,28.75,25.31,46.49,0,17.74-8.99,34.26-25.32,46.51-13.42,10.06-30.54,16.23-48.94,17.74v28.57c0,4.92-3.99,8.91-8.91,8.91Zm8.91-148.07v92.78c14-1.4,27.51-6.13,38.24-14.19,11.73-8.8,18.2-20.26,18.19-32.25,0-12-6.46-23.44-18.19-32.24-10.38-7.8-23.71-12.68-38.25-14.1Zm-17.82-111.39c-12.86,1.47-25.24,6.12-35.1,13.97-11.07,8.79-17.16,20.3-17.16,32.39,0,12.1,6.09,23.61,17.16,32.41,9.57,7.6,21.8,12.4,35.1,13.88v-92.65Z"/>
</svg>