<?xml version="1.0" encoding="UTF-8"?>
<svg id="a" data-name="Layer 1" xmlns="http://www.w3.org/2000/svg" viewBox="0 0 500 500">
  <defs>
    <style>
      .b {
        fill: #63a3d9;
      }

      .c {
        fill: #fff;
        opacity: 0;
      }
    </style>
  </defs>
  <rect class="c" width="500" height="500"/>
  <path class="b" d="m289.64,453.52c-2.39,0-4.78-.96-6.54-2.85-51.31-55.38-79.56-127.15-79.56-202.08,0-34.39,27.98-62.37,62.37-62.37s62.37,27.98,62.37,62.37c0,50.33,23,97,63.11,128.07,3.89,3.01,4.6,8.61,1.59,12.5s-8.61,4.6-12.5,1.59c-44.49-34.46-70.01-86.28-70.01-142.15,0-24.56-19.99-44.55-44.55-44.55s-44.55,19.98-44.55,44.55c0,70.42,26.57,137.89,74.82,189.96,3.34,3.61,3.13,9.25-.48,12.59-1.71,1.59-3.89,2.37-6.05,2.37Z"/>
  <path class="b" d="m217.37,445.9c-2.84,0-5.63-1.35-7.36-3.87-39.21-57.17-59.93-124.06-59.93-193.44,0-63.87,51.96-115.83,115.83-115.83s115.83,51.96,115.83,115.83c0,30.23,13.01,59.41,35.69,80.04,3.64,3.31,3.91,8.95.59,12.59s-8.95,3.91-12.59.59c-26.38-24-41.51-57.98-41.51-93.22,0-54.04-43.97-98.01-98.01-98.01s-98.01,43.97-98.01,98.01c0,65.77,19.64,129.18,56.81,183.36,2.78,4.06,1.75,9.6-2.31,12.39-1.54,1.06-3.3,1.56-5.03,1.56Z"/>
  <path class="b" d="m347.15,430c-2.01,0-4.02-.67-5.69-2.05-53.67-44.57-84.46-109.94-84.46-179.36,0-4.92,3.99-8.91,8.91-8.91s8.91,3.99,8.91,8.91c0,64.1,28.44,124.48,78.02,165.64,3.79,3.14,4.31,8.76,1.16,12.55-1.76,2.12-4.3,3.22-6.86,3.22Z"/>
  <path class="b" d="m124.18,364.42c-3.48,0-6.79-2.05-8.22-5.47-12.83-30.62-19.34-67.75-19.34-110.36,0-93.35,75.94-169.29,169.29-169.29s169.29,75.94,169.29,169.29c0,4.92-3.99,8.91-8.91,8.91s-8.91-3.99-8.91-8.91c0-83.52-67.95-151.47-151.47-151.47S114.44,165.07,114.44,248.59c0,40.24,6.04,75.05,17.96,103.48,1.9,4.54-.23,9.76-4.77,11.66-1.13.47-2.29.7-3.44.7Z"/>
  <path class="b" d="m123.35,489.16h-44.55c-29.48,0-53.46-23.98-53.46-53.46v-44.55c0-4.92,3.99-8.91,8.91-8.91s8.91,3.99,8.91,8.91v44.55c0,19.65,15.99,35.64,35.64,35.64h44.55c4.92,0,8.91,3.99,8.91,8.91s-3.99,8.91-8.91,8.91Z"/>
  <path class="b" d="m479.75,132.76c-4.92,0-8.91-3.99-8.91-8.91v-44.55c0-19.65-15.99-35.64-35.64-35.64h-44.55c-4.92,0-8.91-3.99-8.91-8.91s3.99-8.91,8.91-8.91h44.55c29.48,0,53.46,23.98,53.46,53.46v44.55c0,4.92-3.99,8.91-8.91,8.91Z"/>
  <path class="b" d="m435.2,489.16h-44.55c-4.92,0-8.91-3.99-8.91-8.91s3.99-8.91,8.91-8.91h44.55c19.65,0,35.64-15.99,35.64-35.64v-44.55c0-4.92,3.99-8.91,8.91-8.91s8.91,3.99,8.91,8.91v44.55c0,29.48-23.98,53.46-53.46,53.46Z"/>
  <path class="b" d="m34.25,132.76c-4.92,0-8.91-3.99-8.91-8.91v-44.55c0-29.48,23.98-53.46,53.46-53.46h44.55c4.92,0,8.91,3.99,8.91,8.91s-3.99,8.91-8.91,8.91h-44.55c-19.65,0-35.64,15.99-35.64,35.64v44.55c0,4.92-3.99,8.91-8.91,8.91Z"/>
</svg>